<svg height="511pt" viewBox="-38 0 511 511.99843" width="511pt" xmlns="http://www.w3.org/2000/svg"><path d="m384.84375 61.011719c0 11.023437-8.9375 19.960937-19.960938 19.960937-11.023437 0-19.960937-8.9375-19.960937-19.960937 0-11.023438 8.9375-19.960938 19.960937-19.960938 11.023438 0 19.960938 8.9375 19.960938 19.960938zm0 0" fill="#ffe671"/><path d="m395.863281 112.027344h-.554687c16.269531 0 29.460937-13.191406 29.460937-29.460938v-43.105468c0-16.269532-13.191406-29.460938-29.460937-29.460938h-241.609375c-16.273438 0-29.464844 13.191406-29.464844 29.460938v43.101562c0 16.273438 13.191406 29.460938 29.464844 29.460938h.550781c-16.269531 0-29.460938 13.191406-29.460938 29.464843v11.488281c39.03125 1.945313 74.804688 24.738282 92.523438 61.074219h178.550781c16.269531 0 29.460938-13.191406 29.460938-29.460937v-43.101563c0-16.273437-13.191407-29.460937-29.460938-29.460937zm-30.980469-70.976563c11.023438 0 19.960938 8.9375 19.960938 19.960938 0 11.023437-8.9375 19.960937-19.960938 19.960937-11.023437 0-19.960937-8.9375-19.960937-19.960937 0-11.023438 8.9375-19.960938 19.960937-19.960938zm.554688 141.949219c-11.023438 0-19.960938-8.9375-19.960938-19.960938 0-11.023437 8.9375-19.960937 19.960938-19.960937s19.960938 8.9375 19.960938 19.960937c0 11.023438-8.9375 19.960938-19.960938 19.960938zm0 0" fill="#9bdcff"/><path d="m385.398438 163.039062c0 11.023438-8.9375 19.960938-19.960938 19.960938s-19.960938-8.9375-19.960938-19.960938c0-11.023437 8.9375-19.960937 19.960938-19.960937s19.960938 8.9375 19.960938 19.960937zm0 0" fill="#78ffa9"/><path d="m65.390625 356.371094-14.03125 41.617187c13.167969 4.46875 26.429687 8.964844 39.578125 13.421875l14.042969-41.65625c-13.917969-1.875-27.371094-6.421875-39.589844-13.382812zm0 0" fill="#9bdcff"/><path d="m50.578125 397.726562c-6.628906-2.25-13.828125 1.300782-16.078125 7.933594l-17.449219 50.894532c-6.101562 17.988281 3.535157 37.515624 21.523438 43.617187l.003906.003906c17.988281 6.097657 37.515625-3.539062 43.617187-21.527343l17.453126-50.894532c2.25-6.628906-1.300782-13.828125-7.933594-16.078125-14.152344-4.796875-26.199219-8.886719-40.355469-13.6875zm0 0" fill="#ff8db2"/><path d="m124.789062 152.976562c-47.382812-2.359374-92.519531 26.671876-108.511718 73.832032-17.035156 50.230468 4.6875 104.246094 49.113281 129.5625 12.203125 6.953125 25.652344 11.503906 39.589844 13.382812 50.59375 6.824219 100.574219-22.824218 117.585937-72.984375 9.601563-28.308593 6.890625-57.816406-5.253906-82.71875-17.699219-36.292969-53.441406-59.125-92.523438-61.074219zm61.675782 131.550782c-12.554688 37.027344-52.753906 56.863281-89.78125 44.304687-37.027344-12.558593-56.863282-52.753906-44.304688-89.78125 12.554688-37.027343 52.753906-56.863281 89.78125-44.308593 37.027344 12.558593 56.863282 52.757812 44.304688 89.785156zm0 0" fill="#ff8db2"/><path d="m142.160156 194.753906c-37.027344-12.558594-77.222656 7.277344-89.78125 44.304688s7.277344 77.222656 44.304688 89.78125c37.023437 12.558594 77.222656-7.277344 89.78125-44.300782 12.558594-37.027343-7.277344-77.226562-44.304688-89.785156zm0 0" fill="#d4ffff"/><path d="m364.882812 31.050781c-16.519531 0-29.960937 13.441407-29.960937 29.960938 0 16.523437 13.441406 29.960937 29.960937 29.960937 16.523438 0 29.964844-13.4375 29.964844-29.960937 0-16.519531-13.441406-29.960938-29.964844-29.960938zm0 39.925781c-5.492187 0-9.960937-4.46875-9.960937-9.964843 0-5.492188 4.46875-9.960938 9.960937-9.960938 5.492188 0 9.960938 4.472657 9.960938 9.960938 0 5.492187-4.46875 9.964843-9.960938 9.964843zm0 0"/><path d="m309.433594 51.011719h-145.273438c-5.523437 0-10 4.480469-10 10 0 5.523437 4.476563 10.003906 10 10.003906h145.273438c5.523437 0 10-4.480469 10-10.003906 0-5.519531-4.476563-10-10-10zm0 0"/><path d="m145.371094 185.273438c-12.765625-4.328126-26.492188-5.40625-39.695313-3.117188-5.441406.945312-9.089843 6.121094-8.144531 11.566406.941406 5.4375 6.117188 9.082032 11.5625 8.140625 9.921875-1.722656 20.246094-.90625 29.855469 2.351563 31.746093 10.765625 48.8125 45.355468 38.046875 77.101562-17.285156 50.96875-88.1875 55.816406-112.089844 7.375-7.1875-14.5625-8.273438-31.050781-3.058594-46.429687 1.773438-5.226563-1.027344-10.90625-6.257812-12.679688-5.226563-1.773437-10.910156 1.027344-12.683594 6.257813-6.929688 20.4375-5.488281 42.351562 4.0625 61.703125 31.863281 64.570312 125.96875 58.019531 148.96875-9.804688 14.308594-42.191406-8.375-88.15625-50.566406-102.464843zm0 0"/><path d="m72.609375 218.667969h.023437c5.523438 0 9.988282-4.480469 9.988282-10 0-5.523438-4.488282-10.003907-10.011719-10.003907s-10 4.480469-10 10.003907c0 5.519531 4.476563 10 10 10zm0 0"/><path d="m421.800781 111.785156c7.960938-7.222656 12.96875-17.648437 12.96875-29.222656v-43.101562c0-21.757813-17.703125-39.460938-39.460937-39.460938h-241.613282c-21.757812 0-39.460937 17.703125-39.460937 39.460938v43.101562c0 11.835938 5.246094 22.464844 13.523437 29.703125-7.960937 7.226563-12.96875 17.648437-12.96875 29.222656v1.414063c-16.46875.636718-32.769531 4.734375-47.992187 12.25-28.484375 14.054687-49.789063 38.363281-59.988281 68.441406-17.640625 52.019531 2.929687 107.933594 46.574218 137.089844l-8.921874 26.472656c-8.863282.804688-16.507813 6.679688-19.417969 15.257812l-17.464844 50.925782c-7.859375 23.183594 4.601563 48.441406 27.785156 56.300781.019531.007813.039063.011719.058594.019531 22.964844 7.757813 48.300781-4.367187 56.234375-27.769531l17.460938-50.925781c2.992187-8.816406.269531-18.089844-6.136719-23.976563l8.933593-26.496093c20.984376 1.363281 41.464844-2.855469 60.132813-12.066407 28.484375-14.058593 49.789063-38.367187 59.992187-68.445312 8.675782-25.582031 8.101563-52.105469.097657-75.929688h163.726562c21.757813 0 39.460938-17.703125 39.460938-39.460937v-43.101563c-.003907-11.835937-5.246094-22.464843-13.523438-29.703125zm-268.105469-9.757812c-10.730468 0-19.460937-8.730469-19.460937-19.460938v-43.105468c0-10.730469 8.730469-19.460938 19.460937-19.460938h241.613282c10.726562 0 19.460937 8.730469 19.460937 19.460938v43.101562c0 10.730469-8.730469 19.460938-19.460937 19.460938h-241.613282zm-63.503906 322.484375-17.464844 50.925781c-4.328124 12.765625-18.167968 19.59375-30.9375 15.265625-.015624-.003906-.03125-.011719-.046874-.015625-12.765626-4.355469-19.535157-18.203125-15.234376-30.890625 18.503907-52.652344 16.847657-51.496094 18.8125-52.464844 1.507813-.742187-1.636718-1.382812 43.183594 13.816407.867188.292968 1.316406.894531 1.539063 1.351562.226562.453125.429687 1.175781.148437 2.011719zm1.636719-47.050781-7.167969 21.265624-20.636718-7 7.164062-21.242187c6.378906 2.824219 13.410156 5.246094 20.640625 6.976563zm121.269531-83.902344c-15.535156 45.804687-61.546875 72.820312-107.785156 66.140625-61.648438-8.964844-99.253906-71.625-79.5625-129.679688 13.957031-41.160156 52.523438-67.152343 93.753906-67.152343 67.332032 0 115.347656 66.546874 93.59375 130.691406zm202.222656-108.96875c0 10.730468-8.726562 19.460937-19.460937 19.460937h-172.476563c-6.535156-11.800781-14.894531-22.234375-24.722656-31.011719h111.328125c5.523438 0 10-4.476562 10-10 0-5.523437-4.476562-10-10-10h-142.441406c-10.480469-4.617187-21.519531-7.71875-32.757813-9.207031v-2.34375c0-10.730469 8.730469-19.460937 19.460938-19.460937h241.613281c10.730469 0 19.460938 8.730468 19.460938 19.460937v43.101563zm0 0"/><path d="m365.4375 133.078125c-16.519531 0-29.960938 13.4375-29.960938 29.960937 0 16.519532 13.441407 29.960938 29.960938 29.960938s29.960938-13.441406 29.960938-29.960938c0-16.523437-13.4375-29.960937-29.960938-29.960937zm0 39.921875c-5.492188 0-9.960938-4.46875-9.960938-9.960938 0-5.492187 4.46875-9.960937 9.960938-9.960937s9.960938 4.46875 9.960938 9.960937c0 5.492188-4.46875 9.960938-9.960938 9.960938zm0 0"/></svg>